PathFileType	4	(X/Y/Z)	C:\Motion Data\9999\Fregly Locomotion Course\Processed\9999bj_kick4.trc
DataRate	CameraRate	NumFrames	NumMarkers	Units	OrigDataRate	OrigDataStartFrame	OrigNumFrames
200.00	200.00	       4	35	mm	200.00	220	       292
Frame#	Time	R_Heel			R_Midfoot_Superior			R_Midfoot_Lateral			R_Toe			L_Heel			L_Midfoot_Superior			L_Midfoot_Lateral			L_Toe			R_Shank_Superior			R_Shank_Inferior			R_Shank_Lateral			R_Shank Posterior			L_Shank_Superior			L_Shank_Inferior			L_Shank_Lateral			L_Shank_Posterior			R_Patella			L_Patella			R_Thigh_Superior			R_Thigh_Inferior			R_Thigh_Lateral			L_Thigh_Superior			L_Thigh_Inferior			L_Thigh_Lateral			R_Asis			L_Asis			Sacral			R_Shoulder			L_Shoulder			Back			R_Elbow			L_Elbow			R_Wrist			L_Wrist			Ball			
		X1	Y1	Z1	X2	Y2	Z2	X3	Y3	Z3	X4	Y4	Z4	X5	Y5	Z5	X6	Y6	Z6	X7	Y7	Z7	X8	Y8	Z8	X9	Y9	Z9	X10	Y10	Z10	X11	Y11	Z11	X12	Y12	Z12	X13	Y13	Z13	X14	Y14	Z14	X15	Y15	Z15	X16	Y16	Z16	X17	Y17	Z17	X18	Y18	Z18	X19	Y19	Z19	X20	Y20	Z20	X21	Y21	Z21	X22	Y22	Z22	X23	Y23	Z23	X24	Y24	Z24	X25	Y25	Z25	X26	Y26	Z26	X27	Y27	Z27	X28	Y28	Z28	X29	Y29	Z29	X30	Y30	Z30	X31	Y31	Z31	X32	Y32	Z32	X33	Y33	Z33	X34	Y34	Z34	X35	Y35	Z35

220	   1.095	  534.88800000000003	  401.75833000000000	  253.60280000000000	  658.01007000000004	  279.46035999999998	  282.43405000000001	  584.25811999999996	  282.22152999999997	  327.81558000000001	  670.81322999999998	  163.27293000000000	  287.29074000000003	  353.52399000000003	   50.54946000000000	  184.22794999999999	  534.88507000000004	   93.66173999999999	  169.93338000000000	  479.14139000000000	   28.98152000000000	  118.75333999999999	  633.21356000000003	   53.84673000000000	  172.78563000000000	  800.18176000000005	  615.00598000000002	  303.50500000000000	  718.49230999999997	  472.79108000000002	  296.58514000000002	  701.41547000000003	  566.75451999999996	  348.01422000000002	  665.72631999999999	  642.21807999999999	  273.13565000000000	  521.23821999999996	  385.53098000000000	   89.73994000000000	  495.43765000000002	  233.03246999999999	  122.99363000000000	  442.58337000000000	  319.27303999999998	   39.73998000000000	  389.04315000000003	  212.75899000000001	  121.67355000000001	  855.81688999999994	  748.46472000000006	  293.05261000000002	  557.80755999999997	  483.56563999999997	   62.72833000000000	  670.97155999999995	  908.03174000000001	  272.82265999999998	  745.78972999999996	  857.18506000000002	  280.03699000000000	  650.05736999999999	  829.85772999999995	  335.16973999999999	  568.84655999999995	  740.42376999999999	   -9.95008000000000	  569.95123000000001	  621.95947000000001	   26.85413000000000	  471.77605999999997	  657.16205000000002	  -21.91627000000000	  499.23919999999998	 1002.11181999999997	  245.42223999999999	  519.09496999999999	  954.57709000000000	  -16.90945000000000	  331.27866000000000	 1012.30475000000001	  101.61924000000000	  447.59097000000003	 1407.07471000000010	  297.26190000000003	  547.26611000000003	 1450.31750000000011	  -68.73914000000001	  446.85302999999999	 1472.10790999999995	   77.44123999999999	  314.09122000000002	 1128.64708999999993	  345.70769999999999	  603.56879000000004	 1184.48839999999996	 -237.38381999999999	  417.71206999999998	  911.62743999999998	  457.62524000000002	  846.63849000000005	 1068.41979999999990	 -208.00871000000001	                 NaN	                 NaN	                 NaN
221	   1.100	  527.22466999999995	  398.74295000000001	  254.33743000000001	  647.94073000000003	  274.64764000000002	  283.58694000000003	  574.48175000000003	  278.81923999999998	  329.06918000000002	  658.84136999999998	  160.35263000000000	  289.08792000000000	  353.54056000000003	   50.46087000000000	  183.85406000000000	  534.85626000000002	   93.73672000000001	  169.93616000000000	  479.14139000000000	   28.98152000000000	  118.75333999999999	  633.46069000000000	   54.34944000000000	  172.33694000000000	  796.21112000000005	  607.23650999999995	  304.24230999999997	  712.17474000000004	  467.08783000000000	  297.96158000000003	  696.54192999999998	  561.43926999999996	  349.32754999999997	  662.88995000000000	  638.15497000000005	  272.84170999999998	  521.88433999999995	  385.60149999999999	   89.18635000000000	  495.64438000000001	  233.10975999999999	  122.92677000000000	  442.45071000000002	  319.19287000000003	   39.91849000000000	  389.34021000000001	  213.12796000000000	  121.32973000000000	  854.63433999999995	  740.10131999999999	  293.79363999999998	  558.05426000000000	  484.27332000000001	   59.41123000000000	  673.51971000000003	  903.44763000000000	  272.22888000000000	  747.16992000000005	  850.79912999999999	  279.52078000000000	  651.39171999999996	  825.88225999999997	  335.61160000000001	  570.13726999999994	  739.94824000000006	   -9.72919000000000	  570.77013999999997	  621.31218999999999	   27.06369000000000	  472.86214999999999	  657.83831999999995	  -21.83431000000000	  501.75191999999998	 1002.20978000000002	  246.18325999999999	  521.55462999999997	  954.33916999999997	  -16.09560000000000	  333.48718000000002	 1013.28345000000002	  102.28131000000000	  450.04845999999998	 1408.09985000000006	  297.86243000000002	  547.94434000000001	 1449.93444999999997	  -69.67597000000001	  448.28332999999998	 1472.34204000000000	   77.16767000000000	  318.34494000000001	 1129.99633999999992	  348.57787999999999	  601.64056000000005	 1184.01648000000000	 -239.70250999999999	  424.93268000000000	  915.20934999999997	  461.56729000000001	  844.43091000000004	 1065.01477000000000	 -217.74306000000001	                 NaN	                 NaN	                 NaN
222	   1.105	  519.44482000000005	  396.15402000000000	  254.65974000000000	  639.16895000000000	  270.16088999999999	  284.66977000000003	  564.88232000000005	  275.43457000000001	  329.31741000000000	  647.54102000000000	  155.77820000000000	  289.08316000000002	  353.34829999999999	   50.39229000000000	  183.47730999999999	  534.82146999999998	   93.88831999999999	  169.77417000000000	  479.03055000000001	   29.08767000000000	  118.70815000000000	  633.40746999999999	   54.55959000000000	  172.42561000000001	  792.31348000000003	  600.55993999999998	  304.94308000000001	  705.94037000000003	  461.35741999999999	  298.62378000000001	  691.97937000000002	  556.01855000000000	  350.76013000000000	  660.19426999999996	  633.57361000000003	  271.82382000000001	  522.12305000000003	  385.37637000000001	   89.35178999999999	  495.73822000000001	  233.04776000000001	  123.03565000000000	  443.21294999999998	  319.75380999999999	   39.94226000000000	  389.70258000000001	  213.21254999999999	  120.79519999999999	  853.65954999999997	  731.47204999999997	  294.17009999999999	  558.61132999999995	  483.31403000000000	   59.77610000000000	  675.74652000000003	  898.29132000000004	  271.19637999999998	  748.24468999999999	  844.55687999999998	  279.79910000000001	  652.07501000000002	  821.89490000000001	  335.46609000000001	  571.57104000000004	  739.89977999999996	   -9.66573000000000	  572.32268999999997	  620.79047000000003	   27.05537000000000	  473.65741000000003	  657.87616000000003	  -21.48877000000000	  504.86493000000002	 1001.08667000000003	  246.00626000000000	  523.72949000000006	  954.88733000000002	  -16.14641000000000	  335.93713000000002	 1013.69586000000004	  103.71897000000000	  452.63022000000001	 1409.02710000000002	  297.41683999999998	  548.53625000000000	 1449.67211999999995	  -70.75035000000000	  449.30667000000000	 1472.48253999999997	   76.62625000000000	  323.00394000000000	 1130.30016999999998	  350.77451000000002	  599.69597999999996	 1184.23340000000007	 -242.13609000000000	  433.19107000000002	  919.07617000000005	  466.23181000000000	  841.12616000000003	 1062.54285000000004	 -226.19119000000001	                 NaN	                 NaN	                 NaN
223	   1.110	  512.48906999999997	  393.55797999999999	  255.75789000000000	  630.16387999999995	  266.53710999999998	  285.60613999999998	  555.96613000000002	  272.34661999999997	  330.18419999999998	  637.20574999999997	  151.45905999999999	  289.98709000000002	  353.11279000000002	   50.38635000000000	  183.31729000000001	  534.63000000000000	   93.74061000000000	  169.75322000000000	  479.03055000000001	   29.08767000000000	  118.70815000000000	  633.38793999999996	   54.50334000000000	  172.47127000000000	  788.98925999999994	  593.15588000000002	  305.06824000000000	  699.76660000000004	  455.89339999999999	  299.50277999999997	  687.66895000000000	  551.05267000000003	  351.93414000000001	  657.16558999999995	  628.11883999999998	  271.47836000000001	  522.92211999999995	  385.66165000000001	   89.00524000000000	  494.70477000000000	  232.69810000000001	  123.35102000000001	  443.94112999999999	  319.80117999999999	   40.29852000000000	  389.68065999999999	  213.24518000000000	  120.51908000000000	  852.41620000000000	  723.64586999999995	  294.12844999999999	  558.35870000000000	  482.80804000000001	   59.78064000000000	  678.17542000000003	  893.47095000000002	  270.48495000000003	  749.02466000000004	  838.26549999999997	  279.15399000000002	  653.08483999999999	  817.77459999999996	  335.79590000000002	  573.70971999999995	  739.18462999999997	   -9.88609000000000	  572.73206000000005	  621.04236000000003	   27.22890000000000	  474.71053999999998	  657.49634000000003	  -21.04457000000000	  509.82315000000000	 1003.51251000000002	  246.40269000000001	  525.92553999999996	  954.81853999999998	  -15.56606000000000	  338.75414999999998	 1014.34771999999998	  103.47189000000000	  455.09814000000000	 1409.56067000000007	  295.77697999999998	  548.03423999999995	 1449.83447000000001	  -73.38869000000000	  450.88857999999999	 1472.75976999999989	   74.81789000000001	  326.40517999999997	 1131.21056999999996	  352.02562999999998	  596.30304000000001	 1183.74963000000002	 -244.90262000000001	  440.74426000000000	  922.35248000000001	  469.11090000000002	  838.55505000000005	 1059.16869999999994	 -235.47017000000000	                 NaN	                 NaN	                 NaN
